<svg width="326" height="81" viewBox="0 0 326 81" fill="none" xmlns="http://www.w3.org/2000/svg">
<path d="M108.773 16.5C102.814 8.51448 99.4714 8.48553 93.5001 16.5" stroke="white" stroke-width="3" stroke-linecap="round"/>
<path d="M16.7728 16.5C10.8137 8.51448 7.47139 8.48553 1.5001 16.5" stroke="white" stroke-width="3" stroke-linecap="round"/>
<path d="M78.2274 16.5C84.1865 24.4855 87.5289 24.5145 93.5001 16.5" stroke="white" stroke-width="3" stroke-linecap="round"/>
<path d="M78.2274 16.5C72.2683 8.51448 68.926 8.48553 62.9547 16.5" stroke="white" stroke-width="3" stroke-linecap="round"/>
<path d="M47.6819 16.5C53.641 24.4855 56.9834 24.5145 62.9547 16.5" stroke="white" stroke-width="3" stroke-linecap="round"/>
<path d="M47.7728 16.5C41.8137 8.51448 38.4714 8.48553 32.5001 16.5" stroke="white" stroke-width="3" stroke-linecap="round"/>
<path d="M17.2274 16.5C23.1864 24.4855 26.5288 24.5145 32.5001 16.5" stroke="white" stroke-width="3" stroke-linecap="round"/>
<path d="M108.773 40.5C102.814 32.5145 99.4714 32.4855 93.5001 40.5" stroke="white" stroke-width="3" stroke-linecap="round"/>
<path d="M16.7728 40.5C10.8137 32.5145 7.47139 32.4855 1.5001 40.5" stroke="white" stroke-width="3" stroke-linecap="round"/>
<path d="M78.2274 40.5C84.1865 48.4855 87.5289 48.5145 93.5001 40.5" stroke="white" stroke-width="3" stroke-linecap="round"/>
<path d="M78.2274 40.5C72.2683 32.5145 68.926 32.4855 62.9547 40.5" stroke="white" stroke-width="3" stroke-linecap="round"/>
<path d="M47.6819 40.5C53.641 48.4855 56.9834 48.5145 62.9547 40.5" stroke="white" stroke-width="3" stroke-linecap="round"/>
<path d="M47.7728 40.5C41.8137 32.5145 38.4714 32.4855 32.5001 40.5" stroke="white" stroke-width="3" stroke-linecap="round"/>
<path d="M17.2274 40.5C23.1864 48.4855 26.5288 48.5145 32.5001 40.5" stroke="white" stroke-width="3" stroke-linecap="round"/>
<path d="M108.773 64.5C102.814 56.5145 99.4714 56.4855 93.5001 64.5" stroke="white" stroke-width="3" stroke-linecap="round"/>
<path d="M16.7728 64.5C10.8137 56.5145 7.47139 56.4855 1.5001 64.5" stroke="white" stroke-width="3" stroke-linecap="round"/>
<path d="M78.2274 64.5C84.1865 72.4855 87.5289 72.5145 93.5001 64.5" stroke="white" stroke-width="3" stroke-linecap="round"/>
<path d="M78.2274 64.5C72.2683 56.5145 68.926 56.4855 62.9547 64.5" stroke="white" stroke-width="3" stroke-linecap="round"/>
<path d="M47.6819 64.5C53.641 72.4855 56.9834 72.5145 62.9547 64.5" stroke="white" stroke-width="3" stroke-linecap="round"/>
<path d="M47.7728 64.5C41.8137 56.5145 38.4714 56.4855 32.5001 64.5" stroke="white" stroke-width="3" stroke-linecap="round"/>
<path d="M17.2274 64.5C23.1864 72.4855 26.5288 72.5145 32.5001 64.5" stroke="white" stroke-width="3" stroke-linecap="round"/>
<path d="M141.741 29.014V26.074C141.741 23.358 140.831 22 139.011 22C138.171 22 137.513 22.322 137.037 22.966C136.561 23.61 136.323 24.534 136.323 25.738C136.323 26.102 136.351 26.494 136.407 26.914C136.491 27.334 136.673 27.782 136.953 28.258C137.177 28.678 137.513 29.182 137.961 29.77C138.409 30.33 138.969 30.932 139.641 31.576C139.977 31.94 140.355 32.318 140.775 32.71C141.167 33.13 141.615 33.564 142.119 34.012C143.631 35.384 145.017 36.728 146.277 38.044C147.565 39.36 148.615 40.522 149.427 41.53C150.239 42.594 150.883 43.616 151.359 44.596C151.835 45.576 152.185 46.584 152.409 47.62C152.521 48.152 152.591 48.698 152.619 49.258C152.675 49.818 152.703 50.406 152.703 51.022C152.703 52.702 152.521 54.256 152.157 55.684C151.793 57.084 151.233 58.344 150.477 59.464C149.777 60.528 148.853 61.438 147.705 62.194C146.585 62.95 145.353 63.496 144.009 63.832C142.525 64.224 140.929 64.42 139.221 64.42C135.777 64.42 132.977 63.678 130.821 62.194C128.693 60.738 127.279 58.568 126.579 55.684C126.215 54.284 126.033 52.674 126.033 50.854V46.444H135.273V50.896C135.273 52.52 135.609 53.78 136.281 54.676C136.897 55.572 137.849 56.02 139.137 56.02C139.585 56.02 140.019 55.964 140.439 55.852C140.859 55.712 141.209 55.502 141.489 55.222C141.741 54.97 141.979 54.662 142.203 54.298C142.427 53.906 142.595 53.43 142.707 52.87C142.735 52.618 142.763 52.352 142.791 52.072C142.819 51.764 142.833 51.456 142.833 51.148C142.833 50.56 142.791 50.056 142.707 49.636C142.623 49.188 142.455 48.712 142.203 48.208C141.923 47.704 141.531 47.186 141.027 46.654C140.551 46.122 139.991 45.534 139.347 44.89C138.983 44.554 138.577 44.19 138.129 43.798C137.709 43.406 137.247 42.986 136.743 42.538C135.175 41.138 133.803 39.864 132.627 38.716C131.479 37.54 130.499 36.406 129.687 35.314C128.875 34.25 128.231 33.228 127.755 32.248C127.307 31.24 126.971 30.218 126.747 29.182C126.635 28.678 126.551 28.146 126.495 27.586C126.467 27.026 126.453 26.452 126.453 25.864C126.453 24.324 126.607 22.896 126.915 21.58C127.251 20.236 127.769 19.06 128.469 18.052C129.841 16.092 131.829 14.776 134.433 14.104C135.721 13.768 137.191 13.6 138.843 13.6C141.979 13.6 144.555 14.23 146.571 15.49C147.243 15.91 147.957 16.568 148.713 17.464C149.469 18.36 150.057 19.578 150.477 21.118C150.813 22.378 150.981 23.778 150.981 25.318V29.014H141.741ZM156.076 51.652V14.02H165.946V51.652C165.946 52.38 166.17 53.01 166.618 53.542C166.786 53.794 166.996 54.018 167.248 54.214C167.528 54.382 167.85 54.508 168.214 54.592C168.55 54.704 168.886 54.76 169.222 54.76C170.118 54.76 170.874 54.494 171.49 53.962C172.134 53.402 172.456 52.632 172.456 51.652V14.02H182.326V51.652C182.326 54.788 181.57 57.392 180.058 59.464C179.274 60.528 178.364 61.424 177.328 62.152C176.292 62.852 175.074 63.412 173.674 63.832C172.33 64.224 170.846 64.42 169.222 64.42C167.514 64.42 165.988 64.224 164.644 63.832C163.328 63.412 162.152 62.852 161.116 62.152C158.932 60.668 157.448 58.596 156.664 55.936C156.272 54.62 156.076 53.192 156.076 51.652ZM213.6 27.04C213.6 29.532 213.082 31.66 212.046 33.424C211.57 34.264 210.982 35.006 210.282 35.65C209.61 36.294 208.77 36.84 207.762 37.288C206.81 37.68 205.788 37.932 204.696 38.044V38.716C205.704 38.716 206.726 39.038 207.762 39.682C208.742 40.326 209.512 41.18 210.072 42.244C210.212 42.524 210.324 42.804 210.408 43.084C210.52 43.364 210.618 43.644 210.702 43.924L215.7 64H205.83L199.992 42.874H196.8V64H186.93V14.02H201.63C202.974 14.02 204.262 14.23 205.494 14.65C206.754 15.042 207.888 15.63 208.896 16.414C209.904 17.226 210.744 18.15 211.416 19.186C212.116 20.222 212.662 21.412 213.054 22.756C213.418 24.128 213.6 25.556 213.6 27.04ZM196.8 33.634H199.11C199.642 33.634 200.146 33.564 200.622 33.424C201.126 33.284 201.588 33.06 202.008 32.752C202.736 32.164 203.254 31.324 203.562 30.232C203.674 29.756 203.73 29.168 203.73 28.468C203.73 26.872 203.324 25.612 202.512 24.688C201.7 23.736 200.566 23.26 199.11 23.26H196.8V33.634ZM218.84 14.02H239.63V23.26H228.71V34.054H238.79V43.294H228.71V64H218.84V14.02ZM264.408 64H243.408V14.02H264.198V23.26H253.278V32.794H263.358V42.034H253.278V54.76H264.408V64ZM294.852 27.04C294.852 29.532 294.334 31.66 293.298 33.424C292.822 34.264 292.234 35.006 291.534 35.65C290.862 36.294 290.021 36.84 289.014 37.288C288.062 37.68 287.039 37.932 285.947 38.044V38.716C286.956 38.716 287.978 39.038 289.014 39.682C289.994 40.326 290.763 41.18 291.323 42.244C291.464 42.524 291.576 42.804 291.659 43.084C291.771 43.364 291.87 43.644 291.954 43.924L296.952 64H287.082L281.243 42.874H278.051V64H268.181V14.02H282.882C284.226 14.02 285.514 14.23 286.746 14.65C288.006 15.042 289.14 15.63 290.147 16.414C291.155 17.226 291.995 18.15 292.667 19.186C293.368 20.222 293.914 21.412 294.306 22.756C294.67 24.128 294.852 25.556 294.852 27.04ZM278.051 33.634H280.362C280.893 33.634 281.397 33.564 281.873 33.424C282.377 33.284 282.839 33.06 283.26 32.752C283.988 32.164 284.506 31.324 284.814 30.232C284.925 29.756 284.981 29.168 284.981 28.468C284.981 26.872 284.575 25.612 283.764 24.688C282.951 23.736 281.817 23.26 280.362 23.26H278.051V33.634ZM313.432 29.014V26.074C313.432 23.358 312.522 22 310.702 22C309.862 22 309.204 22.322 308.728 22.966C308.252 23.61 308.014 24.534 308.014 25.738C308.014 26.102 308.042 26.494 308.098 26.914C308.182 27.334 308.364 27.782 308.644 28.258C308.868 28.678 309.204 29.182 309.652 29.77C310.1 30.33 310.66 30.932 311.332 31.576C311.668 31.94 312.046 32.318 312.466 32.71C312.858 33.13 313.306 33.564 313.81 34.012C315.322 35.384 316.708 36.728 317.968 38.044C319.256 39.36 320.306 40.522 321.118 41.53C321.93 42.594 322.574 43.616 323.05 44.596C323.526 45.576 323.876 46.584 324.1 47.62C324.212 48.152 324.282 48.698 324.31 49.258C324.366 49.818 324.394 50.406 324.394 51.022C324.394 52.702 324.212 54.256 323.848 55.684C323.484 57.084 322.924 58.344 322.168 59.464C321.468 60.528 320.544 61.438 319.396 62.194C318.276 62.95 317.044 63.496 315.7 63.832C314.216 64.224 312.62 64.42 310.912 64.42C307.468 64.42 304.668 63.678 302.512 62.194C300.384 60.738 298.97 58.568 298.27 55.684C297.906 54.284 297.724 52.674 297.724 50.854V46.444H306.964V50.896C306.964 52.52 307.3 53.78 307.972 54.676C308.588 55.572 309.54 56.02 310.828 56.02C311.276 56.02 311.71 55.964 312.13 55.852C312.55 55.712 312.9 55.502 313.18 55.222C313.432 54.97 313.67 54.662 313.894 54.298C314.118 53.906 314.286 53.43 314.398 52.87C314.426 52.618 314.454 52.352 314.482 52.072C314.51 51.764 314.524 51.456 314.524 51.148C314.524 50.56 314.482 50.056 314.398 49.636C314.314 49.188 314.146 48.712 313.894 48.208C313.614 47.704 313.222 47.186 312.718 46.654C312.242 46.122 311.682 45.534 311.038 44.89C310.674 44.554 310.268 44.19 309.82 43.798C309.4 43.406 308.938 42.986 308.434 42.538C306.866 41.138 305.494 39.864 304.318 38.716C303.17 37.54 302.19 36.406 301.378 35.314C300.566 34.25 299.922 33.228 299.446 32.248C298.998 31.24 298.662 30.218 298.438 29.182C298.326 28.678 298.242 28.146 298.186 27.586C298.158 27.026 298.144 26.452 298.144 25.864C298.144 24.324 298.298 22.896 298.606 21.58C298.942 20.236 299.46 19.06 300.16 18.052C301.532 16.092 303.52 14.776 306.124 14.104C307.412 13.768 308.882 13.6 310.534 13.6C313.67 13.6 316.246 14.23 318.262 15.49C318.934 15.91 319.648 16.568 320.404 17.464C321.16 18.36 321.748 19.578 322.168 21.118C322.504 22.378 322.672 23.778 322.672 25.318V29.014H313.432Z" fill="white"/>
</svg>
