<svg width="263" height="128" viewBox="0 0 263 128" fill="none" xmlns="http://www.w3.org/2000/svg">
<path d="M47.968 53.014V50.074C47.968 47.358 47.058 46 45.238 46C44.398 46 43.74 46.322 43.264 46.966C42.788 47.61 42.55 48.534 42.55 49.738C42.55 50.102 42.578 50.494 42.634 50.914C42.718 51.334 42.9 51.782 43.18 52.258C43.404 52.678 43.74 53.182 44.188 53.77C44.636 54.33 45.196 54.932 45.868 55.576C46.204 55.94 46.582 56.318 47.002 56.71C47.394 57.13 47.842 57.564 48.346 58.012C49.858 59.384 51.244 60.728 52.504 62.044C53.792 63.36 54.842 64.522 55.654 65.53C56.466 66.594 57.11 67.616 57.586 68.596C58.062 69.576 58.412 70.584 58.636 71.62C58.748 72.152 58.818 72.698 58.846 73.258C58.902 73.818 58.93 74.406 58.93 75.022C58.93 76.702 58.748 78.256 58.384 79.684C58.02 81.084 57.46 82.344 56.704 83.464C56.004 84.528 55.08 85.438 53.932 86.194C52.812 86.95 51.58 87.496 50.236 87.832C48.752 88.224 47.156 88.42 45.448 88.42C42.004 88.42 39.204 87.678 37.048 86.194C34.92 84.738 33.506 82.568 32.806 79.684C32.442 78.284 32.26 76.674 32.26 74.854V70.444H41.5V74.896C41.5 76.52 41.836 77.78 42.508 78.676C43.124 79.572 44.076 80.02 45.364 80.02C45.812 80.02 46.246 79.964 46.666 79.852C47.086 79.712 47.436 79.502 47.716 79.222C47.968 78.97 48.206 78.662 48.43 78.298C48.654 77.906 48.822 77.43 48.934 76.87C48.962 76.618 48.99 76.352 49.018 76.072C49.046 75.764 49.06 75.456 49.06 75.148C49.06 74.56 49.018 74.056 48.934 73.636C48.85 73.188 48.682 72.712 48.43 72.208C48.15 71.704 47.758 71.186 47.254 70.654C46.778 70.122 46.218 69.534 45.574 68.89C45.21 68.554 44.804 68.19 44.356 67.798C43.936 67.406 43.474 66.986 42.97 66.538C41.402 65.138 40.03 63.864 38.854 62.716C37.706 61.54 36.726 60.406 35.914 59.314C35.102 58.25 34.458 57.228 33.982 56.248C33.534 55.24 33.198 54.218 32.974 53.182C32.862 52.678 32.778 52.146 32.722 51.586C32.694 51.026 32.68 50.452 32.68 49.864C32.68 48.324 32.834 46.896 33.142 45.58C33.478 44.236 33.996 43.06 34.696 42.052C36.068 40.092 38.056 38.776 40.66 38.104C41.948 37.768 43.418 37.6 45.07 37.6C48.206 37.6 50.782 38.23 52.798 39.49C53.47 39.91 54.184 40.568 54.94 41.464C55.696 42.36 56.284 43.578 56.704 45.118C57.04 46.378 57.208 47.778 57.208 49.318V53.014H47.968ZM62.3031 75.652V38.02H72.1731V75.652C72.1731 76.38 72.3971 77.01 72.8451 77.542C73.0131 77.794 73.2231 78.018 73.4751 78.214C73.7551 78.382 74.0771 78.508 74.4411 78.592C74.7771 78.704 75.1131 78.76 75.4491 78.76C76.3451 78.76 77.1011 78.494 77.7171 77.962C78.3611 77.402 78.6831 76.632 78.6831 75.652V38.02H88.5531V75.652C88.5531 78.788 87.7971 81.392 86.2851 83.464C85.5011 84.528 84.5911 85.424 83.5551 86.152C82.5191 86.852 81.3011 87.412 79.9011 87.832C78.5571 88.224 77.0731 88.42 75.4491 88.42C73.7411 88.42 72.2151 88.224 70.8711 87.832C69.5551 87.412 68.3791 86.852 67.3431 86.152C65.1591 84.668 63.6751 82.596 62.8911 79.936C62.4991 78.62 62.3031 77.192 62.3031 75.652ZM119.827 51.04C119.827 53.532 119.309 55.66 118.273 57.424C117.797 58.264 117.209 59.006 116.509 59.65C115.837 60.294 114.997 60.84 113.989 61.288C113.037 61.68 112.015 61.932 110.923 62.044V62.716C111.931 62.716 112.953 63.038 113.989 63.682C114.969 64.326 115.739 65.18 116.299 66.244C116.439 66.524 116.551 66.804 116.635 67.084C116.747 67.364 116.845 67.644 116.929 67.924L121.927 88H112.057L106.219 66.874H103.027V88H93.1567V38.02H107.857C109.201 38.02 110.489 38.23 111.721 38.65C112.981 39.042 114.115 39.63 115.123 40.414C116.131 41.226 116.971 42.15 117.643 43.186C118.343 44.222 118.889 45.412 119.281 46.756C119.645 48.128 119.827 49.556 119.827 51.04ZM103.027 57.634H105.337C105.869 57.634 106.373 57.564 106.849 57.424C107.353 57.284 107.815 57.06 108.235 56.752C108.963 56.164 109.481 55.324 109.789 54.232C109.901 53.756 109.957 53.168 109.957 52.468C109.957 50.872 109.551 49.612 108.739 48.688C107.927 47.736 106.793 47.26 105.337 47.26H103.027V57.634ZM125.067 38.02H145.857V47.26H134.937V58.054H145.017V67.294H134.937V88H125.067V38.02ZM170.635 88H149.635V38.02H170.425V47.26H159.505V56.794H169.585V66.034H159.505V78.76H170.635V88ZM201.079 51.04C201.079 53.532 200.561 55.66 199.525 57.424C199.049 58.264 198.461 59.006 197.761 59.65C197.089 60.294 196.249 60.84 195.241 61.288C194.289 61.68 193.267 61.932 192.175 62.044V62.716C193.183 62.716 194.205 63.038 195.241 63.682C196.221 64.326 196.991 65.18 197.551 66.244C197.691 66.524 197.803 66.804 197.887 67.084C197.999 67.364 198.097 67.644 198.181 67.924L203.179 88H193.309L187.471 66.874H184.279V88H174.409V38.02H189.109C190.453 38.02 191.741 38.23 192.973 38.65C194.233 39.042 195.367 39.63 196.375 40.414C197.383 41.226 198.223 42.15 198.895 43.186C199.595 44.222 200.141 45.412 200.533 46.756C200.897 48.128 201.079 49.556 201.079 51.04ZM184.279 57.634H186.589C187.121 57.634 187.625 57.564 188.101 57.424C188.605 57.284 189.067 57.06 189.487 56.752C190.215 56.164 190.733 55.324 191.041 54.232C191.153 53.756 191.209 53.168 191.209 52.468C191.209 50.872 190.803 49.612 189.991 48.688C189.179 47.736 188.045 47.26 186.589 47.26H184.279V57.634ZM219.659 53.014V50.074C219.659 47.358 218.749 46 216.929 46C216.089 46 215.431 46.322 214.955 46.966C214.479 47.61 214.241 48.534 214.241 49.738C214.241 50.102 214.269 50.494 214.325 50.914C214.409 51.334 214.591 51.782 214.871 52.258C215.095 52.678 215.431 53.182 215.879 53.77C216.327 54.33 216.887 54.932 217.559 55.576C217.895 55.94 218.273 56.318 218.693 56.71C219.085 57.13 219.533 57.564 220.037 58.012C221.549 59.384 222.935 60.728 224.195 62.044C225.483 63.36 226.533 64.522 227.345 65.53C228.157 66.594 228.801 67.616 229.277 68.596C229.753 69.576 230.103 70.584 230.327 71.62C230.439 72.152 230.509 72.698 230.537 73.258C230.593 73.818 230.621 74.406 230.621 75.022C230.621 76.702 230.439 78.256 230.075 79.684C229.711 81.084 229.151 82.344 228.395 83.464C227.695 84.528 226.771 85.438 225.623 86.194C224.503 86.95 223.271 87.496 221.927 87.832C220.443 88.224 218.847 88.42 217.139 88.42C213.695 88.42 210.895 87.678 208.739 86.194C206.611 84.738 205.197 82.568 204.497 79.684C204.133 78.284 203.951 76.674 203.951 74.854V70.444H213.191V74.896C213.191 76.52 213.527 77.78 214.199 78.676C214.815 79.572 215.767 80.02 217.055 80.02C217.503 80.02 217.937 79.964 218.357 79.852C218.777 79.712 219.127 79.502 219.407 79.222C219.659 78.97 219.897 78.662 220.121 78.298C220.345 77.906 220.513 77.43 220.625 76.87C220.653 76.618 220.681 76.352 220.709 76.072C220.737 75.764 220.751 75.456 220.751 75.148C220.751 74.56 220.709 74.056 220.625 73.636C220.541 73.188 220.373 72.712 220.121 72.208C219.841 71.704 219.449 71.186 218.945 70.654C218.469 70.122 217.909 69.534 217.265 68.89C216.901 68.554 216.495 68.19 216.047 67.798C215.627 67.406 215.165 66.986 214.661 66.538C213.093 65.138 211.721 63.864 210.545 62.716C209.397 61.54 208.417 60.406 207.605 59.314C206.793 58.25 206.149 57.228 205.673 56.248C205.225 55.24 204.889 54.218 204.665 53.182C204.553 52.678 204.469 52.146 204.413 51.586C204.385 51.026 204.371 50.452 204.371 49.864C204.371 48.324 204.525 46.896 204.833 45.58C205.169 44.236 205.687 43.06 206.387 42.052C207.759 40.092 209.747 38.776 212.351 38.104C213.639 37.768 215.109 37.6 216.761 37.6C219.897 37.6 222.473 38.23 224.489 39.49C225.161 39.91 225.875 40.568 226.631 41.464C227.387 42.36 227.975 43.578 228.395 45.118C228.731 46.378 228.899 47.778 228.899 49.318V53.014H219.659Z" fill="#0573F0"/>
</svg>
