<svg width="156" height="108" viewBox="0 0 156 108" fill="none" xmlns="http://www.w3.org/2000/svg">
<path d="M131.273 30C125.314 22.0145 121.971 21.9855 116 30" stroke="#0573F0" stroke-width="3" stroke-linecap="round"/>
<path d="M39.2727 30C33.3137 22.0145 29.9713 21.9855 24 30" stroke="#0573F0" stroke-width="3" stroke-linecap="round"/>
<path d="M100.727 30C106.686 37.9855 110.029 38.0145 116 30" stroke="#0573F0" stroke-width="3" stroke-linecap="round"/>
<path d="M100.727 30C94.7682 22.0145 91.4259 21.9855 85.4546 30" stroke="#0573F0" stroke-width="3" stroke-linecap="round"/>
<path d="M70.1819 30C76.1409 37.9855 79.4833 38.0145 85.4546 30" stroke="#0573F0" stroke-width="3" stroke-linecap="round"/>
<path d="M70.2727 30C64.3137 22.0145 60.9713 21.9855 55 30" stroke="#0573F0" stroke-width="3" stroke-linecap="round"/>
<path d="M39.7273 30C45.6864 37.9855 49.0287 38.0145 55 30" stroke="#0573F0" stroke-width="3" stroke-linecap="round"/>
<path d="M131.273 54C125.314 46.0145 121.971 45.9855 116 54" stroke="#0573F0" stroke-width="3" stroke-linecap="round"/>
<path d="M39.2727 54C33.3137 46.0145 29.9713 45.9855 24 54" stroke="#0573F0" stroke-width="3" stroke-linecap="round"/>
<path d="M100.727 54C106.686 61.9855 110.029 62.0145 116 54" stroke="#0573F0" stroke-width="3" stroke-linecap="round"/>
<path d="M100.727 54C94.7682 46.0145 91.4259 45.9855 85.4546 54" stroke="#0573F0" stroke-width="3" stroke-linecap="round"/>
<path d="M70.1819 54C76.1409 61.9855 79.4833 62.0145 85.4546 54" stroke="#0573F0" stroke-width="3" stroke-linecap="round"/>
<path d="M70.2727 54C64.3137 46.0145 60.9713 45.9855 55 54" stroke="#0573F0" stroke-width="3" stroke-linecap="round"/>
<path d="M39.7273 54C45.6864 61.9855 49.0287 62.0145 55 54" stroke="#0573F0" stroke-width="3" stroke-linecap="round"/>
<path d="M131.273 78C125.314 70.0145 121.971 69.9855 116 78" stroke="#0573F0" stroke-width="3" stroke-linecap="round"/>
<path d="M39.2727 78C33.3137 70.0145 29.9713 69.9855 24 78" stroke="#0573F0" stroke-width="3" stroke-linecap="round"/>
<path d="M100.727 78C106.686 85.9855 110.029 86.0145 116 78" stroke="#0573F0" stroke-width="3" stroke-linecap="round"/>
<path d="M100.727 78C94.7682 70.0145 91.4259 69.9855 85.4546 78" stroke="#0573F0" stroke-width="3" stroke-linecap="round"/>
<path d="M70.1819 78C76.1409 85.9855 79.4833 86.0145 85.4546 78" stroke="#0573F0" stroke-width="3" stroke-linecap="round"/>
<path d="M70.2727 78C64.3137 70.0145 60.9713 69.9855 55 78" stroke="#0573F0" stroke-width="3" stroke-linecap="round"/>
<path d="M39.7273 78C45.6864 85.9855 49.0287 86.0145 55 78" stroke="#0573F0" stroke-width="3" stroke-linecap="round"/>
</svg>
